# xmcd CD database file
#
# Track frame offsets:
#	150
#	18283
#	34894
#	44206
#	56049
#	73510
#	87370
#	105151
#	118459
#	139163
#	156168
#
# Disc length: 2282 seconds
#
# Revision: 0
# Processed by: cddbd v1.5PL3 Copyright (c) Steve Scherf et al.
# Submitted via: CDex 1.50beta10
#
DISCID=9b08e80b
DTITLE=つじあやの - 恋恋風歌
DYEAR=2003
DGENRE=Pop
TTITLE0=桜の木の下で
TTITLE1=ありきたりなロマンス
TTITLE2=明日によろしく
TTITLE3=月が泣いている
TTITLE4=雨音
TTITLE5=帰り道
TTITLE6=ぎゅっと抱きしめて
TTITLE7=春の陽ざし
TTITLE8=風になる
TTITLE9=星に願いを
TTITLE10=さよならを教えて
EXTD=YEAR: 2003
EXTT0=
EXTT1=
EXTT2=
EXTT3=
EXTT4=
EXTT5=
EXTT6=
EXTT7=
EXTT8=
EXTT9=
EXTT10=
PLAYORDER=
